<svg width="49" height="49" viewBox="0 0 49 49" fill="none" xmlns="http://www.w3.org/2000/svg"><g clip-path="url(#clip0_2_118)"><path d="M41.65 0H7.35C3.29071 0 0 3.29071 0 7.35V41.65C0 45.7093 3.29071 49 7.35 49H41.65C45.7093 49 49 45.7093 49 41.65V7.35C49 3.29071 45.7093 0 41.65 0Z" fill="#6FDA44"/><path d="M34.1852 28.4142C32.5582 28.4142 31.027 27.7252 29.6488 26.6054L29.9838 25.0168L29.9934 24.9593C30.2996 23.275 31.2471 20.4422 34.1852 20.4422C36.3863 20.4422 38.176 22.2318 38.176 24.433C38.176 26.6342 36.3863 28.4142 34.1852 28.4142ZM34.1852 16.4035C30.4336 16.4035 27.5338 18.8343 26.3471 22.8443C24.5478 20.1359 23.1793 16.8916 22.385 14.1545H18.3463V24.6531C18.3463 26.7299 16.6619 28.4142 14.5852 28.4142C12.5084 28.4142 10.824 26.7299 10.824 24.6531V14.1449H6.79492V24.6435C6.79492 28.9406 10.2881 32.472 14.5852 32.472C18.8822 32.472 22.3754 28.9406 22.3754 24.6435V22.8826C23.1602 24.5191 24.1172 26.1748 25.2848 27.6295L22.8156 39.2478H26.9404L28.7301 30.826C30.2996 31.8308 32.0988 32.4625 34.166 32.4625C38.5875 32.4625 42.1859 28.8449 42.1859 24.4138C42.1955 20.0019 38.6066 16.4035 34.1852 16.4035Z" fill="white"/></g><defs><clipPath id="clip0_2_118"><rect width="49" height="49" fill="white"/></clipPath></defs></svg>
